<svg width="24" height="24" viewBox="0 0 24 24" fill="none" xmlns="http://www.w3.org/2000/svg">
<path d="M0 6.5C0 5.67157 0.671573 5 1.5 5H22.5C23.3284 5 24 5.67157 24 6.5C24 7.32843 23.3284 8 22.5 8H1.5C0.671573 8 0 7.32843 0 6.5Z" fill="#FDB955"/>
<path fill-rule="evenodd" clip-rule="evenodd" d="M16.4393 0.43934C15.8536 1.02513 15.8536 1.97487 16.4393 2.56066L20.3787 6.5L16.4393 10.4393C15.8536 11.0251 15.8536 11.9749 16.4393 12.5607C17.0251 13.1464 17.9749 13.1464 18.5607 12.5607L23.5607 7.56066C24.1464 6.97487 24.1464 6.02513 23.5607 5.43934L18.5607 0.43934C17.9749 -0.146447 17.0251 -0.146447 16.4393 0.43934Z" fill="#FDB955"/>
<path d="M24 17.5C24 16.6716 23.3284 16 22.5 16H1.5C0.671574 16 0 16.6716 0 17.5C0 18.3284 0.671574 19 1.5 19H22.5C23.3284 19 24 18.3284 24 17.5Z" fill="#8381FF"/>
<path fill-rule="evenodd" clip-rule="evenodd" d="M7.56066 11.4393C8.14645 12.0251 8.14645 12.9749 7.56066 13.5607L3.62132 17.5L7.56066 21.4393C8.14645 22.0251 8.14645 22.9749 7.56066 23.5607C6.97487 24.1464 6.02513 24.1464 5.43934 23.5607L0.439341 18.5607C-0.146446 17.9749 -0.146446 17.0251 0.439341 16.4393L5.43934 11.4393C6.02513 10.8536 6.97487 10.8536 7.56066 11.4393Z" fill="#8381FF"/>
</svg>
